<?xml version="1.0" encoding="utf-8"?>
<!-- Generator: Adobe Illustrator 28.0.0, SVG Export Plug-In . SVG Version: 6.00 Build 0)  -->
<svg version="1.1" id="Layer_1" xmlns="http://www.w3.org/2000/svg" xmlns:xlink="http://www.w3.org/1999/xlink" x="0px" y="0px"
	 viewBox="0 0 166.6 225.9" style="enable-background:new 0 0 166.6 225.9;" xml:space="preserve">
<style type="text/css">
	.st0{fill-rule:evenodd;clip-rule:evenodd;fill:#295BFF;}
	.st1{fill-rule:evenodd;clip-rule:evenodd;fill-opacity:0.17;}
</style>
<g>
	<path class="st0" d="M164,136.2c0.1,1,0.1,2-0.1,3c-0.5,4.1-2.9,8-7,10.2c-4,2.1-6.4,6-7,10.1c-0.2,1.1-0.2,2.3,0,3.4
		c0.2,1.7,0.7,3.4,1.6,4.9c0.6,1,1,2.1,1.3,3.2c0,0.1,0,0.2,0.1,0.2c1.7,7-2.6,14.5-10.1,16.2c-5.7,1.3-9.6,6-10.3,11.4
		c-0.1,1.1-0.1,2.2,0,3.3c0.1,0.6,0.2,1.1,0.3,1.7l0.8,3.2c0.1,0.5,0.2,0.9,0.2,1.3c0.1,1,0.1,2,0,3c-0.8,5.3-5.5,9.6-11.3,9.5
		c-3.9-0.1-7.3,1.8-9.4,4.6H0V1.5h116.9c0.4,1.5,0.6,3.1,0.4,4.8c-0.6,7.3,4.7,13.8,11.9,14.6c0.2,0,0.4,0.1,0.6,0.1l3.6,0.2
		c0.2,0,0.4,0,0.5,0c6.8,0.8,11.2,7.9,8.8,14.5c-2.1,5.8,1.1,12.2,7,13.9c1.2,0.3,2.2,0.9,3.2,1.5c0.5,0.3,0.9,0.7,1.3,1.1
		c0.4,0.4,0.8,0.8,1.1,1.3c2.5,3.3,2.9,8,0.5,11.9l-2,3.2c-4,6.4-1.9,14.8,4.5,18.7c4.3,2.6,6.6,7.1,6.6,11.6c0,3.5-1.4,7.1-4.3,9.8
		c-2.3,2.2-3.7,4.9-4.1,7.8c-0.2,1.5-0.2,3.1,0.1,4.6c0.5,2.5,1.7,4.9,3.5,6.9c2.1,2.2,3.3,4.8,3.7,7.5
		C163.9,135.8,164,136,164,136.2z"/>
	<path class="st1" d="M160.7,108.8c6.5-6.1,5.3-16.8-2.3-21.5c-6.4-3.9-8.5-12.3-4.5-18.7l2-3.2c3.7-6,0.7-13.8-6.1-15.8
		c-5.9-1.7-9.1-8.1-7-13.9c2.4-6.7-2.2-14.1-9.3-14.6l-3.6-0.2c-7.5-0.5-13.2-7.1-12.5-14.7c0.1-1.7,0-3.3-0.4-4.8h-6.2
		c0.6,1.2,1,2.7,0.8,4.3c-0.9,10.8,7.1,20.3,17.9,21.1l3.6,0.2c3.2,0.2,5.4,3.5,4.2,6.7c-3.2,8.9,1.6,18.9,10.9,21.5
		c3,0.8,4.4,4.4,2.7,7l-2,3.2c-5.7,9.2-2.7,21.3,6.5,26.8c4.4,2.6,5,8.7,1.3,12.2c-7.9,7.4-8.1,19.8-0.7,27.5
		c3.5,3.7,2.6,9.7-1.8,12.1c-9.5,5.1-13,17-7.8,26.4c2.4,4.5,0,10-4.9,11.2c-10.5,2.4-17,13-14.4,23.5l0.8,3.2
		c0.8,3.4-1.8,6.6-5.2,6.5c-7.3-0.2-13.6,4.1-16.2,10.5h6.7c2.1-2.9,5.5-4.7,9.4-4.6c7.3,0.2,12.9-6.6,11.1-13.8l-0.8-3.2
		c-1.8-7.3,2.7-14.7,10-16.4c8.7-2,13-11.9,8.7-19.7c-3.6-6.6-1.2-14.9,5.4-18.5c7.9-4.2,9.5-14.9,3.3-21.3
		C155,122.7,155.2,114,160.7,108.8z"/>
</g>
</svg>
