<svg width="112" height="21" viewBox="0 0 112 21" fill="none" xmlns="http://www.w3.org/2000/svg">
<path d="M0.0146484 16.7966V0.29084H7.26334C9.14046 0.29084 10.579 0.806209 11.5804 1.83695C12.5651 2.85232 13.0581 4.10653 13.0581 5.59956C13.0581 7.16941 12.5651 8.432 11.5804 9.38592C10.5958 10.3398 9.2494 10.8175 7.54128 10.8175H3.47838V16.7966H0.0146484ZM3.47698 3.20009V8.094H6.93931C7.80105 8.094 8.46307 7.87473 8.92397 7.43618C9.38627 6.99762 9.61672 6.39426 9.61672 5.6247C9.61672 4.85514 9.38627 4.25876 8.92397 3.83557C8.46168 3.41239 7.81642 3.20009 6.9854 3.20009H3.47698Z" fill="black"/>
<path d="M17.4896 4.9543V6.84678H17.5594C17.9282 6.15404 18.336 5.64286 18.7829 5.31185C19.2284 4.98084 19.7913 4.81603 20.4687 4.81603C20.7913 4.81603 21.0385 4.84676 21.2075 4.90821V7.65545H21.1377C20.0762 7.54791 19.2215 7.77836 18.5748 8.3482C17.9282 8.91804 17.6055 9.81051 17.6055 11.0256V16.7966H14.4658V4.9543H17.4896Z" fill="black"/>
<path d="M25.7078 0.290827H22.5681V3.1065H25.7078V0.290827Z" fill="black"/>
<path d="M30.8099 4.95431V6.57025H30.8797C31.6953 5.27694 32.8644 4.63168 34.3881 4.63168C35.6032 4.63168 36.5893 5.0437 37.3435 5.86633C38.0977 6.69036 38.4748 7.75602 38.4748 9.0633V16.7966H35.3351V9.52559C35.3351 8.87894 35.1535 8.35658 34.7931 7.95574C34.4314 7.5563 33.9272 7.35518 33.2806 7.35518C32.5878 7.35518 32.0152 7.60937 31.5613 8.11636C31.1073 8.62474 30.8797 9.27838 30.8797 10.0787V16.7966H27.74V4.95431H30.8099Z" fill="black"/>
<path d="M39.49 7.03114V4.9529H41.1283V1.26012H44.1981V4.9543H46.2289V7.03253H44.1981V13.3119C44.1981 14.0969 44.5906 14.4893 45.3755 14.4893L46.2987 14.467V16.7757C45.8211 16.8064 45.1674 16.8218 44.3364 16.8218C43.4286 16.8218 42.666 16.6025 42.0515 16.1639C41.4355 15.7254 41.1283 14.9977 41.1283 13.9823V7.03393H39.49V7.03114Z" fill="black"/>
<path d="M53.2947 17.143C51.3855 17.143 49.8854 16.5536 48.7932 15.3776C47.6997 14.2002 47.1536 12.696 47.1536 10.865C47.1536 9.03397 47.6997 7.61356 48.7932 6.42081C49.8854 5.22806 51.2863 4.63168 52.9944 4.63168C54.8562 4.63168 56.2961 5.27834 57.3115 6.57025C58.3269 7.86356 58.8353 9.59403 58.8353 11.7644H50.2472C50.3701 12.703 50.6857 13.4307 51.1941 13.946C51.7025 14.4614 52.3952 14.7198 53.271 14.7198C54.426 14.7198 55.1872 14.2351 55.5559 13.2659H58.6495C58.4191 14.3734 57.8339 15.2966 56.8953 16.0354C55.9567 16.7743 54.7556 17.143 53.2947 17.143ZM53.0405 7.05489C51.5167 7.05489 50.6005 7.90127 50.2933 9.59403H55.5559C55.5098 8.83983 55.2556 8.22809 54.7947 7.75881C54.3324 7.28953 53.7472 7.05489 53.0405 7.05489Z" fill="black"/>
<path d="M63.3128 4.9543V6.84678H63.3827C63.7514 6.15404 64.1592 5.64286 64.6062 5.31185C65.0517 4.98084 65.6145 4.81603 66.2919 4.81603C66.6146 4.81603 66.8618 4.84676 67.0308 4.90821V7.65545H66.9609C65.8995 7.54791 65.0447 7.77836 64.3981 8.3482C63.7514 8.91804 63.4288 9.81051 63.4288 11.0256V16.7966H60.2891V4.9543H63.3128Z" fill="black"/>
<path d="M73.239 20.9741C71.8228 20.9741 70.6999 20.6849 69.8689 20.1081C69.0378 19.5313 68.5686 18.7813 68.461 17.8567H69.8465C70.077 19.15 71.1929 19.7953 73.1943 19.7953C74.4415 19.7953 75.3759 19.495 75.9988 18.8944C76.6217 18.2939 76.9332 17.4559 76.9332 16.3776V14.4852H76.8634C75.9555 15.8706 74.6929 16.562 73.077 16.562C71.4611 16.562 70.2795 16.0117 69.3493 14.9111C68.4177 13.8106 67.9526 12.3762 67.9526 10.6052C67.9526 8.74346 68.4443 7.27696 69.4303 6.20712C70.415 5.13727 71.6315 4.60235 73.0784 4.60235C74.7558 4.60235 76.017 5.30348 76.8648 6.70294H76.9346V4.85654H78.3424V16.3301C78.3424 17.6542 77.9723 18.7226 77.2349 19.5383C76.327 20.4922 74.996 20.9699 73.2418 20.9699L73.239 20.9741ZM73.1468 15.365C74.4401 15.365 75.4094 14.9377 76.0561 14.0843C76.7027 13.2295 77.0254 12.0647 77.0254 10.5871C77.0254 9.10939 76.6986 7.96273 76.0435 7.10098C75.3899 6.23924 74.4318 5.80767 73.1692 5.80767C71.9988 5.80767 71.084 6.24204 70.4219 7.11216C69.7599 7.98228 69.4289 9.15548 69.4289 10.6332C69.4289 12.1108 69.7446 13.1918 70.3759 14.0606C71.0071 14.9307 71.9303 15.365 73.1454 15.365H73.1468Z" fill="black"/>
<path d="M84.5745 17.0732C83.4041 17.0732 82.4586 16.738 81.7351 16.069C81.0116 15.4 80.6499 14.4726 80.6499 13.2868V4.86073H82.0815V13.1946C82.0815 14.0717 82.3273 14.7379 82.8203 15.1919C83.3133 15.6458 84.0047 15.8734 84.8986 15.8734C85.9139 15.8734 86.7449 15.5354 87.3916 14.8581C88.0383 14.1807 88.3609 13.3343 88.3609 12.3189V4.86212H89.7687V16.7966H88.3609V15.0424H88.3148C87.8371 15.6891 87.3148 16.1891 86.7449 16.5424C86.1751 16.8958 85.4516 17.0732 84.5745 17.0732Z" fill="black"/>
<path d="M93.4153 20.7436C92.9991 20.7436 92.5913 20.6821 92.1918 20.5592V19.2897H92.2617C92.5843 19.3972 92.946 19.4517 93.3469 19.4517C94.2854 19.4517 94.9475 18.9126 95.3315 17.8357L95.724 16.7743L91.1304 4.86211H92.6541L95.5173 12.5717L96.4642 15.2952H96.5103C96.8483 14.2184 97.1486 13.3105 97.4112 12.5717L100.158 4.86211H101.636L96.7184 18.0438C96.3329 19.0746 95.8916 19.7827 95.3916 20.1682C94.8916 20.5522 94.2338 20.745 93.4181 20.745L93.4153 20.7436Z" fill="black"/>
<path d="M106.943 17.1193C105.404 17.1193 104.215 16.7491 103.376 16.0117C102.537 15.2729 102.08 14.2952 102.003 13.0801H103.457C103.657 14.9586 104.826 15.8958 106.966 15.8958C107.935 15.8958 108.682 15.6877 109.204 15.2729C109.727 14.8567 109.989 14.2952 109.989 13.5871C109.989 12.9404 109.77 12.4642 109.331 12.1555C108.893 11.8482 108.051 11.5549 106.804 11.2784C106.08 11.1094 105.503 10.9558 105.072 10.8161C104.64 10.6778 104.199 10.4809 103.745 10.2267C103.291 9.97252 102.96 9.64989 102.752 9.25743C102.544 8.86496 102.44 8.39149 102.44 7.83702C102.44 6.85237 102.824 6.06744 103.594 5.48224C104.364 4.89704 105.364 4.60514 106.595 4.60514C109.242 4.60514 110.72 5.78253 111.028 8.1373H109.597C109.428 6.56745 108.426 5.78253 106.595 5.78253C105.703 5.78253 105.026 5.96689 104.565 6.337C104.102 6.70572 103.872 7.18338 103.872 7.76858C103.872 8.39987 104.118 8.8496 104.611 9.11916C105.102 9.38871 105.996 9.67782 107.288 9.98509C108.704 10.277 109.746 10.6653 110.417 11.1513C111.086 11.6359 111.421 12.4404 111.421 13.5633C111.421 14.6863 111.017 15.5019 110.209 16.1486C109.401 16.7952 108.312 17.1179 106.942 17.1179L106.943 17.1193Z" fill="black"/>
<path d="M25.2144 14.143H23.0608V16.2966H25.2144V14.143Z" fill="#FFDE32"/>
<path d="M22.561 13.6402V16.7952H25.7161V13.6402H22.561ZM25.2147 16.2952H23.061V14.1416H25.2147V16.2952Z" fill="black"/>
<path d="M25.2144 9.79793H23.0608V11.9516H25.2144V9.79793Z" fill="#295BFF"/>
<path d="M22.561 9.29793V12.453H25.7161V9.29793H22.561ZM25.2147 11.9516H23.061V9.79793H25.2147V11.9516Z" fill="black"/>
<path d="M25.2144 5.4557H23.0608V7.60936H25.2144V5.4557Z" fill="#F03126"/>
<path d="M22.5613 4.9543V8.10937H25.7163V4.9543H22.5613ZM25.2149 7.60936H23.0613V5.45571H25.2149V7.60936Z" fill="black"/>
</svg>
