<?xml version="1.0" encoding="utf-8"?>
<!-- Generator: Adobe Illustrator 28.0.0, SVG Export Plug-In . SVG Version: 6.00 Build 0)  -->
<svg version="1.1" id="Layer_1" xmlns="http://www.w3.org/2000/svg" xmlns:xlink="http://www.w3.org/1999/xlink" x="0px" y="0px"
	 viewBox="0 0 24 24" style="enable-background:new 0 0 24 24;" xml:space="preserve">
<path d="M12,1C5.9,1,1,5.9,1,12s4.9,11,11,11s11-4.9,11-11S18.1,1,12,1z M14.6,18.5l-3.6-5.1l-4.5,5.1H5.5l5.1-5.8L5.5,5.5h3.9
	l3.4,4.8L17,5.5h1.2L13.2,11l5.3,7.5H14.6z"/>
<polygon points="12.1,11 8.8,6.3 7,6.3 11.1,12.1 11.7,12.8 15.2,17.7 17,17.7 12.6,11.7 "/>
</svg>
